<svg xmlns="http://www.w3.org/2000/svg" viewBox="0 0 24 24" width="24" height="24"><path fill="#1a1a2e" d="M21 11.5a8.38 8.38 0 0 1-.9 3.8 8.5 8.5 0 0 1-7.6 4.7 8.38 8.38 0 0 1-3.8-.9L3 21l1.9-5.7a8.38 8.38 0 0 1-.9-3.8 8.5 8.5 0 0 1 4.7-7.6 8.38 8.38 0 0 1 3.8-.9h.5a8.48 8.48 0 0 1 8 8v.5z"/><circle fill="#ffffff" cx="9" cy="12" r="1"/><circle fill="#ffffff" cx="12" cy="12" r="1"/><circle fill="#ffffff" cx="15" cy="12" r="1"/><path fill="#1a1a2e" d="M16.5 3.5l1 2 2 1-2 1-1 2-1-2-2-1 2-1z"/></svg>
